<svg width="31" height="30" viewBox="0 0 31 30" fill="none" xmlns="http://www.w3.org/2000/svg">
<g clip-path="url(#clip0_55_2)">
<path d="M25.0744 29.4832L15.4959 24.445L5.91525 29.4795L7.7469 18.813L-0.00170898 11.2569L10.7088 9.70276L15.5006 -0.00147629L20.2885 9.70479L30.9983 11.2632L23.2469 18.8159L25.0744 29.4832Z" fill="#FFCC00"/>
<path d="M20.3211 9.64317C15.4705 16.2462 15.4178 16.318 15.4178 16.318L30.9658 11.2265L20.3211 9.64317Z" fill="#FFE680"/>
<path d="M15.4976 16.1761V24.4667L5.82025 29.4334L15.4976 16.1761ZM15.4976 16.1761L25.0126 29.1807L23.2267 18.6488L15.4976 16.1761Z" fill="#FFDD55"/>
<path d="M0.0614624 11.2377L15.4984 16.1764L10.7289 9.65753L0.0614624 11.2377Z" fill="#FFE680"/>
<path d="M15.4976 16.1761V0.0201149L20.2589 9.65387L15.4976 16.1761Z" fill="#FFDD55"/>
<path d="M5.91919 29.2995L7.71659 18.6787L15.4988 16.1761L5.91919 29.2995Z" fill="#FFD42A"/>
</g>
<defs>
<clipPath id="clip0_55_2">
<rect width="31" height="29.4853" fill="white"/>
</clipPath>
</defs>
</svg>
